<?xml version="1.0" encoding="iso-8859-1"?>
<!-- Generator: Adobe Illustrator 19.0.0, SVG Export Plug-In . SVG Version: 6.00 Build 0)  -->
<svg version="1.1" id="Layer_1" xmlns="http://www.w3.org/2000/svg" xmlns:xlink="http://www.w3.org/1999/xlink" x="0px" y="0px"
	 viewBox="0 0 512 512" style="enable-background:new 0 0 512 512;" xml:space="preserve">
<g transform="translate(1 1)">
	<path style="fill:#CCCCCC;" d="M502.467,255c0,136.533-110.933,247.467-247.467,247.467S7.533,391.533,7.533,255
		S118.467,7.533,255,7.533S502.467,118.467,502.467,255"/>
	<path style="fill:#E2E3E5;" d="M476.867,255c0,136.533-104.96,247.467-234.667,247.467S7.533,391.533,7.533,255
		S112.493,7.533,242.2,7.533S476.867,118.467,476.867,255"/>
	<path style="fill:#E0E0E0;" d="M220.867,187.587c32.427-18.773,74.24-7.68,93.013,24.747s7.68,74.24-24.747,93.013
		c-32.427,18.773-74.24,7.68-93.013-24.747C177.347,248.173,188.44,206.36,220.867,187.587"/>
	<g>
		<path style="fill:#F0F0F0;" d="M189.293,235.373c9.387-36.693,41.813-59.733,70.827-52.053c29.013,7.68,45.227,43.52,35.84,80.213
			c-9.387,36.693-36.693,50.347-65.707,41.813C201.24,296.813,179.053,272.067,189.293,235.373"/>
		<path style="fill:#F0F0F0;" d="M493.933,319.853c-36.693-31.573-91.307-38.4-135.68-12.8
			c-56.32,32.427-75.947,104.107-42.667,160.427c5.12,8.533,11.093,16.213,17.067,23.04
			C411.16,464.067,472.6,400.067,493.933,319.853"/>
	</g>
	<path style="fill:#FFFFFF;" d="M255,502.467c2.56,0,4.267,0,6.827,0C134.68,499.053,33.133,389.827,33.133,255
		S134.68,10.947,261.827,7.533c-2.56,0-4.267,0-6.827,0C118.467,7.533,7.533,118.467,7.533,255S118.467,502.467,255,502.467"/>
	<path style="fill:#F0F0F0;" d="M33.987,311.32c-5.973,3.413-11.947,7.68-17.067,11.947c23.04,80.213,84.48,143.36,163.84,168.107
		c32.427-36.693,40.107-92.16,13.653-137.387C161.987,297.667,90.307,278.04,33.987,311.32"/>
	<g>
		<path style="fill:#E2E3E5;" d="M461.507,391.533c-0.853-2.56-1.707-4.267-3.413-6.827c-12.8-22.187-41.813-29.867-64-17.067
			c-22.187,12.8-29.867,41.813-17.067,64c5.973,10.24,15.36,17.92,26.453,21.333C425.667,436.76,445.293,415.427,461.507,391.533"/>
		<path style="fill:#E2E3E5;" d="M68.973,371.907c-8.533,5.12-15.36,12.8-19.627,21.333c16.213,24.747,37.547,45.227,61.44,62.293
			c1.707-0.853,3.413-1.707,5.12-2.56c22.187-12.8,29.867-41.813,17.067-64C121.027,366.787,92.013,359.107,68.973,371.907"/>
	</g>
	<g>
		<path style="fill:#B6B6B6;" d="M255,511C114.2,511-1,395.8-1,255S114.2-1,255-1s256,115.2,256,256S395.8,511,255,511z M255,16.067
			C123.587,16.067,16.067,123.587,16.067,255S123.587,493.933,255,493.933S493.933,386.413,493.933,255S386.413,16.067,255,16.067z"
			/>
		<path style="fill:#B6B6B6;" d="M194.413,362.52c-2.56,0-5.973-1.707-7.68-4.267c-2.56-4.267-0.853-9.387,3.413-11.947
			l16.213-9.387c4.267-2.56,9.387-0.853,11.947,3.413s0.853,9.387-3.413,11.947l-16.213,9.387
			C197.827,362.52,196.12,362.52,194.413,362.52z"/>
		<path style="fill:#B6B6B6;" d="M229.4,421.4h-18.773c-5.12,0-8.533-3.413-8.533-8.533c0-5.12,3.413-8.533,8.533-8.533H229.4
			c5.12,0,8.533,3.413,8.533,8.533C237.933,417.987,234.52,421.4,229.4,421.4z"/>
		<path style="fill:#B6B6B6;" d="M151.747,319.853c-1.707,0-2.56,0-4.267-0.853c-4.267-2.56-5.12-7.68-3.413-11.947l9.387-16.213
			c2.56-4.267,7.68-5.12,11.947-3.413c4.267,2.56,5.12,7.68,3.413,11.947l-9.387,16.213
			C157.72,318.147,154.307,319.853,151.747,319.853z"/>
		<path style="fill:#B6B6B6;" d="M92.867,303.64c-5.12,0-8.533-3.413-8.533-8.533v-18.773c0-5.12,3.413-8.533,8.533-8.533
			s8.533,3.413,8.533,8.533v18.773C101.4,300.227,97.987,303.64,92.867,303.64z"/>
		<path style="fill:#B6B6B6;" d="M68.973,380.44c-2.56,0-5.973-1.707-7.68-4.267l-34.987-61.44
			c-1.707-3.413-0.853-8.533,3.413-11.093s9.387-0.853,11.947,3.413l34.987,61.44c2.56,4.267,0.853,9.387-3.413,11.947
			C72.387,380.44,70.68,380.44,68.973,380.44z"/>
		<path style="fill:#B6B6B6;" d="M200.387,469.187c-0.853,0-2.56,0-3.413-0.853L132.12,439.32
			c-4.267-1.707-5.973-6.827-4.267-11.093c1.707-4.267,6.827-5.973,11.093-4.267l64.853,29.013
			c4.267,1.707,5.973,6.827,4.267,11.093C206.36,467.48,203.8,469.187,200.387,469.187z"/>
		<path style="fill:#B6B6B6;" d="M124.44,386.413c-1.707,0-4.267-0.853-5.973-2.56c-3.413-3.413-3.413-8.533-0.853-11.947
			l46.933-52.053c3.413-3.413,8.533-3.413,11.947-0.853c3.413,3.413,3.413,8.533,0.853,11.947L130.413,383
			C128.707,385.56,127,386.413,124.44,386.413z"/>
		<path style="fill:#B6B6B6;" d="M315.587,358.253c-1.707,0-2.56,0-4.267-0.853l-16.213-9.387c-4.267-2.56-5.12-7.68-3.413-11.947
			c2.56-4.267,7.68-5.12,11.947-3.413l16.213,9.387c4.267,2.56,5.12,7.68,3.413,11.947
			C320.707,356.547,318.147,358.253,315.587,358.253z"/>
		<path style="fill:#B6B6B6;" d="M358.253,315.587c-2.56,0-5.973-1.707-7.68-4.267l-9.387-16.213
			c-2.56-4.267-0.853-9.387,3.413-11.947c4.267-2.56,9.387-0.853,11.947,3.413l9.387,16.213c2.56,4.267,0.853,9.387-3.413,11.947
			C360.813,314.733,359.96,315.587,358.253,315.587z"/>
		<path style="fill:#B6B6B6;" d="M299.373,417.133H280.6c-5.12,0-8.533-3.413-8.533-8.533c0-5.12,3.413-8.533,8.533-8.533h18.773
			c5.12,0,8.533,3.413,8.533,8.533C307.907,413.72,304.493,417.133,299.373,417.133z"/>
		<path style="fill:#B6B6B6;" d="M417.133,299.373c-5.12,0-8.533-3.413-8.533-8.533v-18.773c0-5.12,3.413-8.533,8.533-8.533
			s8.533,3.413,8.533,8.533v18.773C425.667,295.96,422.253,299.373,417.133,299.373z"/>
		<path style="fill:#B6B6B6;" d="M393.24,376.173c-2.56,0-5.973-1.707-7.68-4.267l-34.987-61.44
			c-2.56-4.267-0.853-9.387,3.413-11.947c4.267-2.56,9.387-0.853,11.947,3.413l34.987,61.44c2.56,4.267,0.853,9.387-3.413,11.947
			C396.653,376.173,394.947,376.173,393.24,376.173z"/>
		<path style="fill:#B6B6B6;" d="M301.933,441.88c-4.267,0-7.68-2.56-8.533-6.827c-0.853-4.267,1.707-9.387,6.827-10.24
			l69.12-14.507c4.267-0.853,9.387,1.707,10.24,6.827c0.853,4.267-1.707,9.387-6.827,10.24l-69.12,14.507
			C302.787,441.88,302.787,441.88,301.933,441.88z"/>
		<path style="fill:#B6B6B6;" d="M180.76,499.907c-0.853,0-1.707,0-2.56,0C95.427,473.453,32.28,408.6,9.24,324.973
			c-0.853-3.413,0-6.827,2.56-8.533c5.973-5.12,11.947-9.387,17.92-12.8l0,0c60.587-34.987,137.387-13.653,172.373,46.08
			c27.307,46.933,21.333,106.667-15.36,146.773C185.88,499.053,183.32,499.907,180.76,499.907z M27.16,325.827
			c23.04,73.387,78.507,130.56,151.04,155.307c28.16-34.987,32.427-83.627,9.387-122.88C157.72,306.2,90.307,288.28,38.253,318.147
			C34.84,320.707,30.573,323.267,27.16,325.827z"/>
		<path style="fill:#B6B6B6;" d="M332.653,498.2c-2.56,0-4.267-0.853-5.973-2.56c-7.68-7.68-13.653-15.36-18.773-23.893
			c-34.987-60.587-13.653-137.387,46.08-172.373c46.08-26.453,104.96-21.333,145.067,13.653c2.56,2.56,3.413,5.12,2.56,8.533
			C479.427,405.187,416.28,470.893,334.36,498.2C334.36,498.2,333.507,498.2,332.653,498.2z M417.133,299.373
			c-18.773,0-37.547,5.12-54.613,14.507c-52.053,29.867-69.973,97.28-40.107,149.333c3.413,5.973,7.68,11.947,11.947,17.067
			c72.533-25.6,128-83.627,149.333-157.867C464.92,307.053,441.027,299.373,417.133,299.373z"/>
		<path style="fill:#B6B6B6;" d="M402.627,462.36c-0.853,0-1.707,0-2.56,0c-13.653-4.267-24.747-12.8-31.573-24.747
			c-15.36-26.453-5.973-60.587,20.48-75.947c12.8-7.68,28.16-9.387,41.813-5.973c14.507,4.267,26.453,12.8,34.133,25.6
			c1.707,2.56,2.56,5.12,3.413,8.533c0.853,2.56,0.853,5.12-0.853,7.68c-16.213,24.747-36.693,46.08-60.587,64
			C406.893,461.507,404.333,462.36,402.627,462.36z M417.133,370.2c-6.827,0-13.653,1.707-19.627,5.12
			c-18.773,10.24-24.747,34.133-14.507,52.907c4.267,6.827,10.24,12.8,17.92,16.213c19.627-15.36,35.84-32.427,50.347-52.907
			c0-0.853-0.853-0.853-0.853-1.707c-5.12-8.533-13.653-15.36-23.04-17.92C423.96,370.2,420.547,370.2,417.133,370.2z"/>
		<path style="fill:#B6B6B6;" d="M110.787,464.92c-1.707,0-3.413-0.853-5.12-1.707c-24.747-17.92-46.08-39.253-63.147-64.853
			c-1.707-2.56-1.707-5.973-0.853-8.533c5.12-11.093,12.8-19.627,23.04-25.6l0,0c26.453-15.36,60.587-5.973,75.947,20.48
			c15.36,26.453,5.973,60.587-20.48,75.947c-1.707,0.853-4.267,2.56-5.973,3.413C113.347,464.92,112.493,464.92,110.787,464.92z
			 M59.587,393.24c14.507,20.48,31.573,38.4,52.053,53.76l0,0c18.773-10.24,24.747-34.133,14.507-52.907
			s-34.133-24.747-52.907-14.507l0,0C68.12,383,63,387.267,59.587,393.24z"/>
		<path style="fill:#B6B6B6;" d="M208.92,84.333c-3.413,0-6.827-2.56-8.533-5.973l-7.68-27.307c0-5.12,2.56-9.387,6.827-10.24
			c4.267-0.853,9.387,1.707,10.24,5.973l7.68,27.307c0.853,4.267-1.707,9.387-5.973,10.24
			C210.627,84.333,209.773,84.333,208.92,84.333z"/>
		<path style="fill:#B6B6B6;" d="M130.413,130.413c-2.56,0-4.267-0.853-5.973-2.56l-19.627-19.627
			c-3.413-3.413-3.413-8.533,0-11.947s8.533-3.413,11.947,0l19.627,19.627c3.413,3.413,3.413,8.533,0,11.947
			C134.68,129.56,132.12,130.413,130.413,130.413z"/>
		<path style="fill:#B6B6B6;" d="M379.587,130.413c-2.56,0-4.267-0.853-5.973-2.56c-3.413-3.413-3.413-8.533,0-11.947L393.24,96.28
			c3.413-3.413,8.533-3.413,11.947,0s3.413,8.533,0,11.947l-19.627,19.627C383.853,129.56,382.147,130.413,379.587,130.413z"/>
		<path style="fill:#B6B6B6;" d="M167.107,102.253c-2.56,0-5.973-1.707-7.68-4.267L144.92,73.24
			c-2.56-4.267-0.853-9.387,3.413-11.947s9.387-0.853,11.947,3.413l14.507,24.747c2.56,4.267,0.853,9.387-3.413,11.947
			C169.667,101.4,167.96,102.253,167.107,102.253z"/>
		<path style="fill:#B6B6B6;" d="M255,78.36c-5.12,0-8.533-3.413-8.533-8.533v-28.16c0-5.12,3.413-8.533,8.533-8.533
			s8.533,3.413,8.533,8.533v28.16C263.533,74.947,260.12,78.36,255,78.36z"/>
		<path style="fill:#B6B6B6;" d="M102.253,167.107c-1.707,0-2.56,0-4.267-0.853L73.24,151.747c-4.267-2.56-5.12-7.68-3.413-11.947
			c2.56-4.267,7.68-5.12,11.947-3.413l24.747,14.507c4.267,2.56,5.12,7.68,3.413,11.947
			C108.227,165.4,104.813,167.107,102.253,167.107z"/>
		<path style="fill:#B6B6B6;" d="M84.333,208.92c-0.853,0-1.707,0-2.56,0l-27.307-7.68c-4.267-0.853-7.68-5.973-5.973-10.24
			c1.707-4.267,5.973-6.827,11.093-5.973l27.307,7.68c4.267,0.853,7.68,5.973,5.973,10.24C92.013,207.213,88.6,208.92,84.333,208.92
			z"/>
		<path style="fill:#B6B6B6;" d="M425.667,208.92c-3.413,0-6.827-2.56-8.533-5.973c-0.853-4.267,1.707-9.387,5.973-10.24
			l27.307-7.68c4.267-0.853,9.387,1.707,10.24,5.973c0.853,4.267-1.707,9.387-5.973,10.24l-27.307,7.68
			C427.373,208.92,426.52,208.92,425.667,208.92z"/>
		<path style="fill:#B6B6B6;" d="M407.747,167.107c-2.56,0-5.973-1.707-7.68-4.267c-2.56-4.267-0.853-9.387,3.413-11.947
			l24.747-14.507c4.267-2.56,9.387-0.853,11.947,3.413s0.853,9.387-3.413,11.947l-24.747,14.507
			C411.16,166.253,409.453,167.107,407.747,167.107z"/>
		<path style="fill:#B6B6B6;" d="M342.893,102.253c-1.707,0-2.56,0-4.267-0.853c-4.267-2.56-5.12-7.68-3.413-11.947l14.507-24.747
			c2.56-4.267,7.68-5.12,11.947-3.413c4.267,2.56,5.12,7.68,3.413,11.947l-14.507,24.747
			C348.867,100.547,346.307,102.253,342.893,102.253z"/>
		<path style="fill:#B6B6B6;" d="M301.08,84.333c-0.853,0-1.707,0-2.56,0c-4.267-0.853-7.68-5.973-5.973-10.24l7.68-27.307
			c0.853-4.267,5.973-6.827,10.24-5.973c4.267,0.853,6.827,5.12,5.973,10.24l-7.68,27.307
			C307.907,81.773,304.493,84.333,301.08,84.333z"/>
		<path style="fill:#B6B6B6;" d="M255,323.267c-26.453,0-52.053-13.653-66.56-38.4c-21.333-36.693-8.533-83.627,28.16-104.96
			c17.92-10.24,38.4-12.8,58.027-7.68c19.627,5.12,36.693,17.92,46.933,35.84c21.333,36.693,8.533,83.627-28.16,104.96
			C281.453,319.853,267.8,323.267,255,323.267z M255,186.733c-10.24,0-20.48,2.56-29.867,7.68l0,0
			c-28.16,16.213-38.4,52.907-22.187,81.92c16.213,28.16,52.907,38.4,81.92,22.187c28.16-16.213,38.4-52.907,22.187-81.92
			c-7.68-13.653-20.48-23.893-35.84-28.16C265.24,187.587,260.12,186.733,255,186.733z M220.867,187.587L220.867,187.587
			L220.867,187.587z"/>
		<path style="fill:#B6B6B6;" d="M78.36,255.853c-5.12,0-8.533-3.413-8.533-8.533c0-66.56,34.987-128,92.16-161.28
			c43.52-24.747,93.013-31.573,140.8-18.773s87.893,43.52,112.64,86.187c16.213,28.16,24.747,60.587,24.747,93.013
			c0,5.12-4.267,8.533-8.533,8.533l0,0c-5.12,0-8.533-4.267-8.533-8.533c0-29.867-7.68-58.88-22.187-84.48
			c-22.187-39.253-58.88-66.56-102.4-78.507s-88.747-5.973-127.147,17.067c-52.053,30.72-84.48,86.187-84.48,146.773
			C86.893,251.587,83.48,255.853,78.36,255.853L78.36,255.853z"/>
		<path style="fill:#B6B6B6;" d="M206.36,206.36c-2.56,0-4.267-0.853-5.973-2.56l-78.507-78.507c-3.413-3.413-3.413-8.533,0-11.947
			s8.533-3.413,11.947,0l78.507,78.507c3.413,3.413,3.413,8.533,0,11.947C211.48,205.507,208.92,206.36,206.36,206.36z"/>
		<path style="fill:#B6B6B6;" d="M303.64,206.36c-2.56,0-4.267-0.853-5.973-2.56c-3.413-3.413-3.413-8.533,0-11.947l78.507-78.507
			c3.413-3.413,8.533-3.413,11.947,0c3.413,3.413,3.413,8.533,0,11.947L309.613,203.8C307.907,205.507,305.347,206.36,303.64,206.36
			z"/>
	</g>
</g>
<g>
</g>
<g>
</g>
<g>
</g>
<g>
</g>
<g>
</g>
<g>
</g>
<g>
</g>
<g>
</g>
<g>
</g>
<g>
</g>
<g>
</g>
<g>
</g>
<g>
</g>
<g>
</g>
<g>
</g>
</svg>
