<?xml version="1.0" encoding="UTF-8"?>
<svg width="610px" height="389px" viewBox="0 0 610 389" version="1.1" xmlns="http://www.w3.org/2000/svg" xmlns:xlink="http://www.w3.org/1999/xlink">
    <!-- Generator: Sketch 54.1 (76490) - https://sketchapp.com -->
    <title>landfill_gas_capture</title>
    <desc>Created with Sketch.</desc>
    <g id="Page-1" stroke="none" stroke-width="1" fill="none" fill-rule="evenodd">
        <g id="landfill_gas_capture">
            <path d="M10.0839844,323.616559 L293,323.616559 L305,302.924863 L320.003906,290.869141 L343.5,286.416016 L356,282.511719 C359.757812,272.486979 362.723307,267.474609 364.896484,267.474609 C367.069661,267.474609 375.141927,265.51579 389.113281,261.59815 L406.908203,261.59815 C417.224609,268.037925 423.266276,271.257812 425.033203,271.257812 C426.80013,271.257812 433.574219,271.257812 445.355469,271.257812 L461.5,261.59815 L485.947266,261.59815 L502.576172,271.257812 L517.289062,290.869141 L531.628906,292.607355 L531.628906,267.474609 L507.763672,237.746094 L474,233.810547 L466.15625,231.148437 L445.355469,205.423828 L425.033203,194.700683 L410.816406,164.896484 L377.455123,142.509719 L347.173828,148.5 C333.445964,159.43099 325.485677,164.896484 323.292969,164.896484 C321.10026,164.896484 313.917318,164.896484 301.744141,164.896484 L284.25,164.896484 L270.856445,151.685547 L259.478516,148.5 C255.653323,143.877249 249.084963,141.880489 239.773438,142.509719 C230.461912,143.138949 221.316729,146.197558 212.337891,151.685547 L191.4375,174.464844 L183.292969,184.5 L158.119141,188.15625 L130,198.513672 L113.080078,215 L99.0097656,237.746094 L81.5917969,243.076172 L60.828125,254.675781 L50.2226562,271.257812 L42,282.511719 L22.5371094,290.869141 L10.0839844,311.873047 L10.0839844,323.616559 Z" id="Path-5" fill="#00CC92"></path>
            <path d="M48.5613153,210.707441 C52.2302688,214.018148 57.8683805,213.704847 61.1565054,210.015372 C64.4399863,206.32122 64.1334656,200.644386 60.4645133,197.333679 C60.4412924,197.314974 58.3792468,195.224739 61.8531426,190.160479 C71.4945922,176.108677 65.46172,163.459717 60.9242938,158.736815 C57.5014849,155.173596 51.8540841,155.075397 48.3151707,158.526389 C44.776256,161.972705 44.6787272,167.658892 48.10618,171.22211 C48.2269297,171.348366 51.0134762,174.359801 47.1773311,179.957141 C37.2850906,194.369006 43.7591675,206.372658 48.5613153,210.707441 Z" id="Path" fill="#391E5D" fill-rule="nonzero"></path>
            <path d="M274.560092,115.707889 C278.229497,119.018624 283.868303,118.70532 287.156832,115.011139 C290.440718,111.321634 290.134159,105.644752 286.464755,102.334017 C286.441531,102.315313 284.379232,100.220385 287.84891,95.1607597 C297.496192,81.1041655 291.462577,68.4597779 286.924592,63.7368379 C283.501362,60.173589 277.853266,60.0753896 274.313917,63.5264101 C270.774566,66.9727537 270.677026,72.6543112 274.1049,76.2222348 C274.225665,76.3438161 277.012554,79.3599511 273.175937,84.952661 C263.287123,99.3693207 269.757353,111.373072 274.560092,115.707889 Z" id="Path" fill="#391E5D" fill-rule="nonzero"></path>
            <path d="M337.559817,54.7074409 C341.229068,58.0181483 346.867639,57.7048466 350.156031,54.0153721 C353.439778,50.3212205 353.133233,44.6443865 349.463982,41.3336791 C349.440758,41.3149745 347.378548,39.2247394 350.852723,34.160479 C360.494958,20.1086772 354.461595,7.46439332 349.923799,2.736815 C346.500713,-0.826403443 340.852854,-0.924603291 337.313653,2.52638898 C333.774451,5.97270421 333.681558,11.658891 337.104644,15.2221107 C337.225405,15.3483656 340.012178,18.3644771 336.17572,23.9571411 C326.287321,38.3690054 332.757278,50.3726583 337.559817,54.7074409 Z" id="Path" fill="#391E5D" fill-rule="nonzero"></path>
            <path d="M427.91025,380.067844 C427.91025,385.00379 431.912636,389 436.845806,389 L597.541528,389 C605.392716,389 611.284598,381.831014 609.758108,374.173552 C608.231617,366.506785 603.791762,359.789059 597.411218,355.360199 C599.612529,331.0759 581.680918,310.145812 558.099429,307.912773 C557.838809,307.889513 557.587495,307.880208 557.33153,307.8616 C554.022582,300.618179 548.582132,294.426149 541.712924,290.243853 C547.050987,249.928195 511.546117,216.032526 471.401274,223.471336 C465.043998,206.486285 450.04902,193.757963 432.210488,190.315361 C429.785787,175.726173 422.507032,162.867591 412.189259,153.316696 L415.763481,139.978942 C418.467417,129.888397 413.51563,119.523374 404.486996,115.066601 L412.086871,86.7116581 C415.554054,86.2464417 418.569804,83.7761432 419.533167,80.1893242 C420.808346,75.4208547 417.978754,70.5267789 413.213124,69.2474334 L407.898331,67.8238705 C369.740718,57.6030655 418.020639,70.5360826 379.830449,60.3059727 C375.060166,59.0312803 370.159571,61.8551444 368.884394,66.6236126 C367.921029,70.2150836 369.289286,73.8763373 372.06303,76.0116799 L364.467808,104.348014 C354.410655,103.701363 344.944552,110.195784 342.240615,120.28633 L335.776299,144.393845 C328.73955,148.38075 322.414853,153.651652 317.230369,160.02977 C308.425124,156.517385 298.861287,156.252212 290.270123,158.741121 C283.224065,150.148572 274.055814,143.598325 263.64496,139.746333 C259.014296,138.034336 253.876352,140.392984 252.163704,145.017235 C250.446402,149.646139 252.8106,154.782128 257.436612,156.498778 C265.259876,159.392424 272.110468,164.430718 277.239105,171.060052 C281.246143,176.233259 288.082773,178.303472 294.249237,176.21465 C299.866537,174.307262 306.312237,174.51661 312.069155,177.26604 C318.300773,180.238772 325.765686,178.424429 329.823917,172.944178 C355.24371,138.601901 409.075776,152.953828 414.776846,194.562787 C415.70298,201.322381 420.892118,206.58398 427.69617,207.65863 C440.587571,209.696277 451.417276,219.075041 455.284697,231.556798 C457.541855,238.856044 465.220848,243.196513 472.76953,241.433344 C500.921183,234.873791 527.160069,257.915963 524.125703,286.7966 C523.469499,286.596556 522.803986,286.415122 522.133819,286.247644 C514.254708,248.518589 466.281945,235.380877 440.359527,264.619731 C435.207621,262.949604 429.418127,262.628605 423.865981,263.884689 C415.209662,254.124448 402.988429,248.634894 389.915526,248.634894 C370.99728,248.634894 354.382732,260.107131 347.606603,277.478314 C320.962825,274.091538 295.785036,289.769332 286.640054,314.351369 C285.588264,314.318803 284.210699,314.365326 283.242681,314.430455 C280.678364,314.593281 277.951157,315.132932 276.75975,315.439976 L163.492279,315.439976 C179.566971,291.239416 207.853589,298.906183 204.074592,298.222315 C211.102035,299.492356 218.129477,295.3938 220.279595,288.489986 C227.069686,266.703901 255.467997,261.870302 269.276222,279.711353 C272.766673,284.214648 278.72371,286.015036 284.099005,284.191388 C287.435876,283.060911 291.172986,283.284215 294.351624,284.796168 C298.80544,286.922207 304.13885,285.038081 306.265698,280.58596 C308.392546,276.133838 306.503049,270.802458 302.049233,268.676419 C295.431337,265.517599 288.133967,264.870948 281.441608,266.401511 C262.099855,244.527033 227.507155,246.164595 210.259673,269.327722 L209.542966,266.652727 C206.834377,256.562183 197.396196,250.053804 187.311119,250.714411 L179.715897,222.38273 C182.489642,220.247386 183.857899,216.581481 182.894535,212.99001 C181.619356,208.226193 176.718763,205.397677 171.953133,206.672371 L166.63834,208.095933 C166.63834,208.095933 166.63834,208.095933 166.633685,208.095933 L143.880597,214.190269 C143.880597,214.190269 143.875944,214.194921 143.875944,214.194921 L138.565804,215.618482 C133.800175,216.893176 130.970582,221.791905 132.24576,226.555721 C133.209125,230.147192 136.229528,232.617492 139.692056,233.082708 L147.291932,261.432998 C138.468071,265.782772 133.255664,276.059403 136.015447,286.349992 L143.615324,314.700281 C143.508283,314.946846 143.401242,315.193411 143.298856,315.439976 L18.5128957,315.439976 C18.4337791,315.439976 18.1917744,315.439976 17.9916549,315.179455 C17.8380754,314.974759 17.8753069,314.835194 17.8985774,314.751455 C21.5333004,301.725395 32.54451,287.885205 45.784956,287.885205 L45.7989169,287.885205 C52.8589372,287.885205 59.2301739,282.75852 60.0259959,275.770969 C61.9294562,259.176698 77.4317141,247.597461 93.9485291,250.477151 C100.966663,251.705323 107.7521,247.42068 109.697445,240.507563 C118.223454,210.156842 148.818422,190.566577 180.493105,196.35387 C188.795725,197.865823 196.949419,193.004311 199.439274,185.021197 C203.10192,173.26983 211.586044,163.463068 222.713603,158.113078 C227.162765,155.977735 229.033646,150.641703 226.89749,146.194233 C224.756681,141.746764 219.413962,139.876593 214.969455,142.011937 C199.737126,149.334443 188.041786,162.63033 182.731647,178.605863 C143.322125,171.911398 105.583367,195.544394 93.4877892,232.39884 C91.9706058,232.249971 90.44877,232.175536 88.9269329,232.175536 C66.2715773,232.175536 47.05548,248.258068 42.8250521,270.137198 C21.966116,271.821282 5.97054171,290.997503 0.683671541,309.955074 C-2.58804507,321.687832 6.29631656,333.304287 18.5128957,333.304287 L254.467402,333.304287 C253.308571,335.565239 252.363822,337.965755 251.716926,340.491881 C237.224572,342.780746 226.264554,356.20224 222.564677,369.470213 C219.828163,379.276976 227.237228,389 237.461923,389 L395.146548,389 C400.084374,389 404.082103,385.00379 404.082103,380.067844 C404.082103,375.13655 400.084374,371.135689 395.146548,371.135689 L240.877912,371.135689 C243.777312,364.259789 249.678502,358.016585 256.068355,358.016585 L256.073009,358.016585 C262.146394,358.016585 267.870735,353.648202 268.606056,347.23752 C270.011543,334.974413 282.204854,332.443636 280.603901,332.927461 C284.545783,331.74116 287.519648,332.350594 289.115948,332.53668 C295.119523,333.248461 300.746131,329.522078 302.402931,323.623132 C307.848036,304.256172 327.348023,291.858155 347.457677,295.524059 C354.536312,296.822013 361.479983,292.658326 363.606831,285.847557 C367.213631,274.277625 377.787371,266.503858 389.92018,266.503858 C398.50669,266.503858 406.455611,270.411676 411.728519,277.217793 C415.260856,281.786218 421.227201,283.460997 426.486147,281.688522 C429.743901,280.581308 433.406549,280.795307 436.510722,282.274695 C441.98375,284.889212 448.550452,283.288867 452.129329,278.455268 C467.859629,257.199529 501.442424,265.996772 504.988723,291.904676 C505.770584,297.612882 510.149936,302.306915 516.167475,303.255957 C523.902314,304.474825 530.403861,310.099291 532.721522,317.593927 C534.085124,321.990223 537.682616,325.162999 541.94562,326.214389 C547.265068,327.53095 548.968409,324.995521 556.414705,325.70265 C570.902404,327.070387 581.69488,340.370924 579.42376,355.304373 C578.567436,360.97071 581.303948,366.646349 586.237121,369.423692 C587.093445,369.907517 587.879959,370.484386 588.582704,371.14034 L436.845806,371.14034 C431.912636,371.135689 427.91025,375.13655 427.91025,380.067844 L427.91025,380.067844 Z M356.286191,136.908513 L359.502061,124.910581 C360.023301,122.97528 362.089649,121.775022 364.030339,122.296065 C371.295131,124.245321 378.801928,119.914157 380.747274,112.647475 L389.15228,81.2965387 L394.643924,82.7712757 L386.238917,114.122211 C384.288918,121.388892 388.621732,128.88353 395.891178,130.832786 C397.822561,131.349176 399.023277,133.424042 398.502036,135.35469 L396.584615,142.509719 C384.005028,136.313036 369.582483,134.507996 356.286191,136.908513 Z M187.753243,268.662462 C189.693934,268.14142 191.760281,269.337026 192.281522,271.272326 L194.547988,279.743917 C180.330216,280.33009 167.085118,285.945253 156.981425,295.533364 L153.281546,281.716435 C152.764959,279.790439 153.937751,277.715575 155.892403,277.194532 C159.415433,276.250143 162.35672,273.993843 164.181063,270.835023 C166.005405,267.680855 166.489414,264.005646 165.544665,260.483958 L157.144313,229.133021 L162.631301,227.662937 L171.036309,259.013872 C172.981653,266.280554 180.483796,270.611719 187.753243,268.662462 Z" id="Shape" fill="#391E5D" fill-rule="nonzero"></path>
            <path d="M111.562461,157.707441 C115.232055,161.018148 120.871152,160.704847 124.155206,157.015372 C127.443905,153.321222 127.132686,147.644386 123.467738,144.333679 C123.444513,144.314974 121.377462,142.224739 124.851965,137.16048 C134.495098,123.108677 128.461173,110.459717 123.927599,105.736816 C120.499547,102.173596 114.855806,102.075397 111.316274,105.526388 C107.772096,108.972705 107.679195,114.658892 111.102602,118.22211 C111.223372,118.348366 114.01505,121.359801 110.178235,126.952465 C100.284267,141.369006 106.759475,153.372658 111.562461,157.707441 Z" id="Path" fill="#391E5D" fill-rule="nonzero"></path>
            <path d="M181.561316,118.709537 C185.234913,122.020229 190.873025,121.702253 194.156506,118.012795 C197.444631,114.318661 197.133466,108.641851 193.464513,105.335834 C193.445937,105.312454 191.379247,103.222228 194.853142,98.1626667 C204.494592,84.1062499 198.46172,71.4620219 193.924293,66.7391415 C190.501485,63.1712617 184.854085,63.0777393 181.31517,66.5240393 C177.776257,69.9750164 177.683372,75.6565011 181.106179,79.219705 C181.22693,79.3459605 184.013477,82.3620575 180.17733,87.9546968 C170.285091,102.366498 176.759167,114.374773 181.561316,118.709537 Z" id="Path" fill="#391E5D" fill-rule="nonzero"></path>
            <path d="M455.564269,174.707441 C459.233558,178.018148 464.872188,177.704847 468.155969,174.015372 C471.444397,170.32122 471.133203,164.644387 467.463913,161.333679 C467.445335,161.314975 465.378457,159.224739 468.85267,154.160479 C478.495005,140.108677 472.461578,127.464393 467.923736,122.736815 C464.500615,119.173597 458.85734,119.075397 455.313457,122.526389 C451.774219,125.972704 451.681325,131.658891 455.104447,135.222111 C455.225208,135.348366 458.016655,138.364477 454.175513,143.957141 C444.287011,158.369005 450.757036,170.372658 455.564269,174.707441 L455.564269,174.707441 Z" id="Path" fill="#391E5D" fill-rule="nonzero"></path>
        </g>
    </g>
</svg>