<?xml version="1.0" encoding="iso-8859-1"?>
<!-- Generator: Adobe Illustrator 19.0.0, SVG Export Plug-In . SVG Version: 6.00 Build 0)  -->
<svg version="1.1" id="Layer_1" xmlns="http://www.w3.org/2000/svg" xmlns:xlink="http://www.w3.org/1999/xlink" x="0px" y="0px"
	 viewBox="0 0 508 508" style="enable-background:new 0 0 508 508;" xml:space="preserve">
<circle style="fill:#84DBFF;" cx="254" cy="254" r="254"/>
<g>
	<path style="fill:#54C0EB;" d="M52.8,408.8C99.2,469.2,172,508,254,508s154.8-38.8,201.2-99.2H52.8z"/>
	<path style="fill:#54C0EB;" d="M290.4,72.8c0.4-1.6,0.8-3.6,0.8-5.6c0-12.4-10-22-22-22c-6.8,0-12.8,2.8-16.8,7.6
		c-3.6-2.4-8-4-12.8-4c-11.2,0-20.8,8.4-22,19.6c-2-0.8-4.4-0.8-6.4-0.8c-12.4,0-22,10-22,22c-9.2,0-17.2,5.6-20.4,14
		c-10.8,1.6-18.8,10.8-18.8,22c0,10.8,7.6,19.6,17.6,21.6c1.6,10.8,10.8,19.2,22,19.2c12.4,0,22-10,22-22c0-2.4-0.4-4.8-1.2-6.8
		c1.2,0.4,2.4,0.4,3.6,0.4c11.2,0,20.8-8.4,22-19.6c1.2,0.4,2.4,0.4,4,0.4c10.4,0,19.2-7.2,21.6-16.8c2.8,1.2,5.6,2,8.8,2
		c12.4,0,22-10,22-22C292,78,291.6,75.2,290.4,72.8z"/>
	<path style="fill:#54C0EB;" d="M392.4,162c0.4-1.2,0.4-2.4,0.4-3.6c0-7.6-6.4-14-14-14c-4.4,0-8,2-10.4,4.8c-2.4-1.6-5.2-2.8-8-2.8
		c-7.2,0-13.2,5.2-14,12.4c-1.2-0.4-2.8-0.8-4-0.8c-7.6,0-14,6.4-14,14c-6,0-10.8,3.6-12.8,8.8c-6.8,1.2-12,6.8-12,14
		c0,6.8,4.8,12.4,11.2,13.6c0.8,6.8,6.8,12,14,12c7.6,0,14-6.4,14-14c0-1.6-0.4-2.8-0.8-4.4c0.8,0,1.6,0.4,2.4,0.4
		c7.2,0,13.2-5.2,14-12.4c0.8,0,1.6,0.4,2.4,0.4c6.4,0,12-4.4,13.6-10.8c1.6,0.8,3.6,1.2,5.6,1.2c7.6,0,14-6.4,14-14
		C393.6,165.6,393.2,163.6,392.4,162z"/>
</g>
<path style="fill:#CED5E0;" d="M371.2,213.6h-42h-41.6c0,0-13.2,168.4-51.6,195.2h93.6h93.6C384.4,382,371.2,213.6,371.2,213.6z"/>
<g>
	<path style="fill:#E6E9EE;" d="M373.6,218.8h-88.4c-5.2,0-9.6-4.4-9.6-9.6l0,0c0-5.2,4.4-9.6,9.6-9.6h88.4c5.2,0,9.6,4.4,9.6,9.6
		l0,0C383.2,214.4,378.8,218.8,373.6,218.8z"/>
	<path style="fill:#E6E9EE;" d="M255.2,163.6h-52.8H150c0,0-16.4,211.2-65.2,245.2h117.6H320C271.6,375.2,255.2,163.6,255.2,163.6z"
		/>
</g>
<path style="fill:#FFFFFF;" d="M258,170H147.2c-6.4,0-12-5.2-12-12l0,0c0-6.4,5.2-12,12-12H258c6.4,0,12,5.2,12,12l0,0
	C270,164.8,264.8,170,258,170z"/>
<path style="fill:#54C0EB;" d="M202.4,319.6L202.4,319.6L202.4,319.6z"/>
<circle style="fill:#FFFFFF;" cx="202.4" cy="319.6" r="53.2"/>
<g>
	<circle style="fill:#FF7058;" cx="202.4" cy="319.6" r="8.8"/>
	<path style="fill:#FF7058;" d="M246.8,319.6h-29.2c0-5.2-2.8-10-6.8-12.4l16.4-24.4C239.2,290.8,246.8,304,246.8,319.6z"/>
	<path style="fill:#FF7058;" d="M227.6,356.4c-7.2,4.8-15.6,7.6-24.8,7.6s-17.6-2.8-24.8-7.6l16.4-24.4c2.4,1.6,5.2,2.8,8.4,2.8
		s6-0.8,8.4-2.8L227.6,356.4z"/>
	<path style="fill:#FF7058;" d="M194,306.8c-4,2.8-6.8,7.2-6.8,12.4H158c0-15.2,7.6-28.8,19.6-36.8L194,306.8z"/>
</g>
<g>
</g>
<g>
</g>
<g>
</g>
<g>
</g>
<g>
</g>
<g>
</g>
<g>
</g>
<g>
</g>
<g>
</g>
<g>
</g>
<g>
</g>
<g>
</g>
<g>
</g>
<g>
</g>
<g>
</g>
</svg>
