<svg xmlns="http://www.w3.org/2000/svg" xmlns:xlink="http://www.w3.org/1999/xlink" viewBox="0 0 130.15244 116.1318">
  <defs>
    <style>
      .cls-1 {
        fill: url(#linear-gradient);
      }

      .cls-2 {
        fill: url(#linear-gradient-2);
      }

      .cls-3 {
        fill: url(#linear-gradient-3);
      }

      .cls-4 {
        fill: url(#linear-gradient-4);
      }

      .cls-5 {
        fill: url(#linear-gradient-5);
      }

      .cls-6 {
        fill: url(#linear-gradient-6);
      }

      .cls-7 {
        fill: url(#linear-gradient-7);
      }

      .cls-8 {
        fill: url(#linear-gradient-8);
      }
    </style>
    <linearGradient id="linear-gradient" x1="65.07622" y1="-5.64463" x2="65.07622" y2="89.19451" gradientUnits="userSpaceOnUse">
      <stop offset="0" stop-color="#76ad17"/>
      <stop offset="1" stop-color="#3e8f3d"/>
    </linearGradient>
    <linearGradient id="linear-gradient-2" x1="34.75913" y1="-5.64438" x2="34.75913" y2="89.19249" xlink:href="#linear-gradient"/>
    <linearGradient id="linear-gradient-3" x1="65.06941" y1="-5.64438" x2="65.06941" y2="89.19249" xlink:href="#linear-gradient"/>
    <linearGradient id="linear-gradient-4" x1="95.37264" y1="-5.64438" x2="95.37264" y2="89.19249" xlink:href="#linear-gradient"/>
    <linearGradient id="linear-gradient-5" x1="31.9485" y1="-5.64673" x2="31.9485" y2="89.19143" xlink:href="#linear-gradient"/>
    <linearGradient id="linear-gradient-6" x1="65.08102" y1="-5.64816" x2="65.08102" y2="89.1931" xlink:href="#linear-gradient"/>
    <linearGradient id="linear-gradient-7" x1="98.19605" y1="-5.64816" x2="98.19605" y2="89.1931" xlink:href="#linear-gradient"/>
    <linearGradient id="linear-gradient-8" x1="65.08104" y1="-5.64214" x2="65.08104" y2="89.19357" xlink:href="#linear-gradient"/>
  </defs>
  <title>Solar panel</title>
  <g id="Layer_2" data-name="Layer 2">
    <g id="Í_ã_1" data-name="Í¼²ã_1">
      <g>
        <path class="cls-1" d="M130.04154,71.9424,120.17824,9.167A11.23921,11.23921,0,0,0,109.45855,0H20.70075A11.24493,11.24493,0,0,0,9.97805,9.167L.11085,71.9424a7.70854,7.70854,0,0,0,7.8399,9.168h114.25A7.70783,7.70783,0,0,0,130.04154,71.9424ZM8.80125,72.4443l9.7354-61.9316a2.67687,2.67687,0,0,1,2.1641-1.8525h88.7578a2.68161,2.68161,0,0,1,2.165,1.8506L121.351,72.4483Z"/>
        <path class="cls-2" d="M44.83835,14.3018H27.11085a2.68954,2.68954,0,0,0-2.5976,2.3056L22.482,33.5918a2.01658,2.01658,0,0,0,2.0469,2.3057H43.817a2.466,2.466,0,0,0,2.4316-2.3203l.8018-16.9571A2.19875,2.19875,0,0,0,44.83835,14.3018Z"/>
        <path class="cls-3" d="M54.46046,35.8975H75.67535a2.22987,2.22987,0,0,0,2.2392-2.3223l-.6172-16.9531a2.43346,2.43346,0,0,0-2.4072-2.3203H55.24075a2.43236,2.43236,0,0,0-2.40529,2.3203l-.61131,16.9531A2.22928,2.22928,0,0,0,54.46046,35.8975Z"/>
        <path class="cls-4" d="M86.33155,35.8975H105.609a2.01591,2.01591,0,0,0,2.0459-2.3057l-2.044-16.9853a2.6918,2.6918,0,0,0-2.6006-2.3047H85.28765a2.19619,2.19619,0,0,0-2.211,2.3183l.8194,16.9571A2.47027,2.47027,0,0,0,86.33155,35.8975Z"/>
        <path class="cls-5" d="M43.39115,40.6738H23.44775a2.72248,2.72248,0,0,0-2.6211,2.3047L18.31985,62.25a1.98919,1.98919,0,0,0,2.0225,2.3027H42.148a2.48018,2.48018,0,0,0,2.4434-2.3203l1.0019-19.2383A2.18685,2.18685,0,0,0,43.39115,40.6738Z"/>
        <path class="cls-6" d="M75.99855,40.6738H54.147a2.44546,2.44546,0,0,0-2.414,2.3223L50.98,62.2324a2.21957,2.21957,0,0,0,2.23151,2.3203H76.95165a2.21876,2.21876,0,0,0,2.2305-2.3203l-.7676-19.2363A2.44861,2.44861,0,0,0,75.99855,40.6738Z"/>
        <path class="cls-7" d="M106.69385,40.6738H86.74465a2.18672,2.18672,0,0,0-2.20119,2.3203l1.01169,19.2383a2.47983,2.47983,0,0,0,2.4444,2.3203h21.8095a1.99119,1.99119,0,0,0,2.0235-2.3027L109.317,42.9785A2.7261,2.7261,0,0,0,106.69385,40.6738Z"/>
        <path class="cls-8" d="M80.06205,103.5742c-.876-.084-1.8028-.1572-2.7451-.2285V85.875H52.84325v17.4883c-.9463.0732-1.874.1504-2.749.2353-20.30079,1.9893-19.8682,10.6338-19.8682,12.5332h69.71C99.93605,113.9971,100.36575,105.4971,80.06205,103.5742Z"/>
      </g>
    </g>
  </g>
</svg>
