<?xml version="1.0" encoding="UTF-8" standalone="no"?>
<svg xmlns:rdf="http://www.w3.org/1999/02/22-rdf-syntax-ns#" xmlns="http://www.w3.org/2000/svg" height="465.92mm" width="282mm" version="1.1" xmlns:cc="http://creativecommons.org/ns#" xmlns:dc="http://purl.org/dc/elements/1.1/" viewBox="0 0 999.19519 1650.889">
<g transform="translate(-91.831 484.51)">
<path style="enable-background:new" fill="#003380" d="m326.19 1166.2c-0.1102-0.1101-0.2003-18.47-0.2003-40.8v-40.6h53.25c29.287 0 53.257-0.034 53.266-0.075 0.077-0.3658 28.389-919.6 28.326-919.67-0.085-0.0974-1.1682 1.4787-12.747 18.546-128.9 190.01-243.52 319.03-321.69 362.09-12.843 7.0753-32.793 14.317-34.564 12.546-0.054-0.054 73.67-116.78 163.83-259.4 90.162-142.61 163.93-259.41 163.93-259.54 0-0.13152-3.5299-5.5527-7.8442-12.047-156.11-234.99-245.06-426.03-234.01-502.61 0.4684-3.2489 1.5039-7.8494 1.971-8.7576 0.3653-0.71024-14.503-22.001 239.4 342.81 44.04 63.277 81.443 117.01 83.118 119.4l3.0442 4.35 12.439 0.20373c6.8413 0.11205 22.361 0.35289 34.489 0.53517 240.41 3.6138 418.57 28.957 503.95 71.684 15.787 7.9008 31.648 19.198 34.54 24.601 0.395 0.73806 19.891 0.51294-301.15 3.4774-150.21 1.3871-273.14 2.5616-273.18 2.61-0.053 0.0723 35.154 998.92 35.219 999.16 0.0111 0.041 23.038 0.075 51.171 0.075h51.151l-0.076 40.725-0.076 40.725-163.67 0.075c-90.021 0.041-163.76-0.015-163.87-0.125zm160.92-1092.8c28.881-7.5178 34.696-45.481 9.3707-61.175-20.868-12.932-48.338 0.87846-50.804 25.543-2.2679 22.685 19.443 41.357 41.433 35.633z"/>
</g>
</svg>
